<?xml version="1.0"?>
<svg xmlns="http://www.w3.org/2000/svg" xmlns:xlink="http://www.w3.org/1999/xlink" xmlns:svgjs="http://svgjs.com/svgjs" version="1.1" width="512" height="512" x="0" y="0" viewBox="0 0 496 496" style="enable-background:new 0 0 512 512" xml:space="preserve" class=""><g><g xmlns="http://www.w3.org/2000/svg" fill="#f0bc5e"><path d="m176 128h176v48h-176zm0 0" fill="#f5931f" data-original="#f0bc5e" style="" class=""/><path d="m160 128h-96v112h56v-24h40zm0 0" fill="#f5931f" data-original="#f0bc5e" style="" class=""/><path d="m240 312h56v96h-56zm0 0" fill="#f5931f" data-original="#f0bc5e" style="" class=""/></g><path xmlns="http://www.w3.org/2000/svg" d="m64 64h16v16h-16zm0 0" fill="#375668" data-original="#000000" style="" class=""/><path xmlns="http://www.w3.org/2000/svg" d="m96 64h16v16h-16zm0 0" fill="#375668" data-original="#000000" style="" class=""/><path xmlns="http://www.w3.org/2000/svg" d="m128 64h16v16h-16zm0 0" fill="#375668" data-original="#000000" style="" class=""/><path xmlns="http://www.w3.org/2000/svg" d="m144 240h16v16h-16zm0 0" fill="#375668" data-original="#000000" style="" class=""/><path xmlns="http://www.w3.org/2000/svg" d="m176 240h16v16h-16zm0 0" fill="#375668" data-original="#000000" style="" class=""/><path xmlns="http://www.w3.org/2000/svg" d="m248 0c-42.625 0-84.625 11.097656-121.664062 32h-94.335938v94.335938c-20.902344 37.03125-32 79.03125-32 121.664062 0 38.070312 8.433594 74.640625 25.054688 108.6875l14.378906-7.015625c-15.554688-31.847656-23.433594-66.054687-23.433594-101.671875 0-28.953125 5.535156-57.566406 16-84.351562v108.351562h80v24h16v-8h320v77.367188c-15.207031 25.816406-35.273438 48.449218-58.921875 66.632812h-185.964844v16h162.277344c-34.453125 20.3125-74.566406 32-117.382813 32-26.136718 0-51.886718-4.367188-76.550781-12.992188l-5.28125 15.105469c26.351563 9.214844 53.886719 13.886719 81.824219 13.886719 136.753906 0 248-111.257812 248-248s-111.246094-248-248-248zm0 16c29.808594 0 58.289062 5.710938 84.496094 16h-168.839844c26.785156-10.464844 55.390625-16 84.34375-16zm-200 32h317.367188c.871093.511719 1.769531.992188 2.632812 1.511719v46.488281h-320zm64 160v48h-64v-144h320v96zm336 64h-320v-48h320zm-64-64v-147.785156c58.113281 42.199218 96 110.632812 96 187.785156 0 29.808594-5.710938 58.289062-16 84.496094v-124.496094zm0 0" fill="#375668" data-original="#000000" style="" class=""/><path xmlns="http://www.w3.org/2000/svg" d="m120 496c-57.34375 0-104-46.65625-104-104s46.65625-104 104-104 104 46.65625 104 104-46.65625 104-104 104zm0 0" fill="#f5931f" data-original="#f0bc5e" style="" class=""/><path xmlns="http://www.w3.org/2000/svg" d="m96.234375 454.066406 32.03125-127.992187 15.515625 3.882812-32.035156 127.992188zm0 0" fill="#375668" data-original="#000000" style="" class=""/><path xmlns="http://www.w3.org/2000/svg" d="m158.246094 437-12.492188-10 28.007813-35-28.007813-35 12.492188-10 35.992187 45zm0 0" fill="#375668" data-original="#000000" style="" class=""/><path xmlns="http://www.w3.org/2000/svg" d="m81.753906 437-35.992187-45 35.992187-45 12.492188 10-28.007813 35 28.007813 35zm0 0" fill="#375668" data-original="#000000" style="" class=""/><path xmlns="http://www.w3.org/2000/svg" d="m208 240h16v16h-16zm0 0" fill="#375668" data-original="#000000" style="" class=""/><path xmlns="http://www.w3.org/2000/svg" d="m176 128h16v16h-16zm0 0" fill="#375668" data-original="#000000" style="" class=""/><path xmlns="http://www.w3.org/2000/svg" d="m208 128h144v16h-144zm0 0" fill="#375668" data-original="#000000" style="" class=""/><path xmlns="http://www.w3.org/2000/svg" d="m176 160h16v16h-16zm0 0" fill="#375668" data-original="#000000" style="" class=""/><path xmlns="http://www.w3.org/2000/svg" d="m208 160h144v16h-144zm0 0" fill="#375668" data-original="#000000" style="" class=""/><path xmlns="http://www.w3.org/2000/svg" d="m368 416c-30.871094 0-56-25.128906-56-56s25.128906-56 56-56 56 25.128906 56 56-25.128906 56-56 56zm0 0" fill="#f5931f" data-original="#f0bc5e" style="" class=""/><path xmlns="http://www.w3.org/2000/svg" d="m240 400h56v16h-56zm0 0" fill="#375668" data-original="#000000" style="" class=""/><path xmlns="http://www.w3.org/2000/svg" d="m240 368h56v16h-56zm0 0" fill="#375668" data-original="#000000" style="" class=""/><path xmlns="http://www.w3.org/2000/svg" d="m240 336h56v16h-56zm0 0" fill="#375668" data-original="#000000" style="" class=""/><path xmlns="http://www.w3.org/2000/svg" d="m208 304h88v16h-88zm0 0" fill="#375668" data-original="#000000" style="" class=""/></g></svg>
