<?xml version="1.0"?>
<svg xmlns="http://www.w3.org/2000/svg" xmlns:xlink="http://www.w3.org/1999/xlink" xmlns:svgjs="http://svgjs.com/svgjs" version="1.1" width="512" height="512" x="0" y="0" viewBox="0 0 512 512" style="enable-background:new 0 0 512 512" xml:space="preserve" class=""><g><g xmlns="http://www.w3.org/2000/svg"><path d="m0 361h512v61h-512z" fill="#375668" data-original="#000000" style="" class=""/><path d="m181 226c0 24.814 20.186 45 45 45 18.144 0 33.624-11.047 40.688-26.867l-85.688-21.418z" fill="#375668" data-original="#000000" style="" class=""/><path d="m361 95.206-210 52.513v36.562l210 52.513z" fill="#375668" data-original="#000000" style="" class=""/><path d="m0 331h512v-331h-512zm121-206.719 240-59.985v-33.296h30v270h-30v-33.296l-64.691-16.168c-10.545 29.039-38.238 49.464-70.309 49.464-41.353 0-75-33.647-75-75v-10.783l-30-7.498z" fill="#375668" data-original="#000000" style="" class=""/><path d="m181 452v30h-60v30h270v-30h-60v-30z" fill="#375668" data-original="#000000" style="" class=""/></g></g></svg>
