<?xml version="1.0"?>
<svg xmlns="http://www.w3.org/2000/svg" xmlns:xlink="http://www.w3.org/1999/xlink" xmlns:svgjs="http://svgjs.com/svgjs" version="1.1" width="512" height="512" x="0" y="0" viewBox="0 0 64 64" style="enable-background:new 0 0 512 512" xml:space="preserve" class=""><g><g xmlns="http://www.w3.org/2000/svg" id="Mobile_Application" data-name="Mobile Application"><path d="m38 57a3 3 0 0 1 -3 3h-24a3 3 0 0 1 -3-3v-50a3 3 0 0 1 3-3h3.382l1.171 2.342a2.983 2.983 0 0 0 2.683 1.658h9.528a2.983 2.983 0 0 0 2.683-1.658l1.171-2.342h3.382a3 3 0 0 1 3 3v10h2v-10a5.006 5.006 0 0 0 -5-5h-24a5.006 5.006 0 0 0 -5 5v50a5.006 5.006 0 0 0 5 5h24a5.006 5.006 0 0 0 5-5v-3h-2zm-9.342-51.553a1 1 0 0 1 -.894.553h-9.528a1 1 0 0 1 -.894-.553l-.724-1.447h12.764z" fill="#375668" data-original="#000000" style="" class=""/><path d="m21 24h-8a1 1 0 0 0 -1 1v8a1 1 0 0 0 1 1h8a1 1 0 0 0 1-1v-5.586l4.707-4.707-1.414-1.414-3.362 3.362a1 1 0 0 0 -.931-.655zm-1 8h-6v-6h6v.586l-2 2-1.293-1.293-1.414 1.414 2 2a1 1 0 0 0 1.414 0l1.293-1.293z" fill="#375668" data-original="#000000" style="" class=""/><path d="m30 14h4v2h-4z" fill="#375668" data-original="#000000" style="" class=""/><path d="m30 18h4v2h-4z" fill="#375668" data-original="#000000" style="" class=""/><path d="m25.293 9.293-3.362 3.362a1 1 0 0 0 -.931-.655h-8a1 1 0 0 0 -1 1v8a1 1 0 0 0 1 1h8a1 1 0 0 0 1-1v-5.586l4.707-4.707zm-5.293 10.707h-6v-6h6v.586l-2 2-1.293-1.293-1.414 1.414 2 2a1 1 0 0 0 1.414 0l1.293-1.293z" fill="#375668" data-original="#000000" style="" class=""/><path d="m53.588 23h6v2h-6z" transform="matrix(.866 -.5 .5 .866 -4.419 31.509)" fill="#375668" data-original="#000000" style="" class=""/><path d="m50.49 18.438h6v2h-6z" transform="matrix(.5 -.866 .866 .5 9.915 56.047)" fill="#375668" data-original="#000000" style="" class=""/><path d="m55.99 27.964h6v2h-6z" fill="#375668" data-original="#000000" style="" class=""/><path d="m48.259 19.572a5.009 5.009 0 0 0 -6.831-1.83 1 1 0 0 0 -.286.248l-13.2 16.776-3.3 1.9a5 5 0 1 0 5 8.66l3.211-1.854 12.777 13.137a3.017 3.017 0 0 0 4.246 0l1.1-1.1a2.985 2.985 0 0 0 -.405-4.576l-6.006-4.551a4.947 4.947 0 0 1 -1.382-1.382l-1.859-2.782 12.746-1.836a1 1 0 0 0 .358-.124 5 5 0 0 0 1.831-6.83zm-6.459.815 10.523 18.226-19.188 2.764-3.323-5.754zm-13.156 23.213a3 3 0 1 1 -3-5.2l2.6-1.5 3 5.2zm12.877 2.514a6.848 6.848 0 0 0 1.881 1.9l6.009 4.551a1 1 0 0 1 .442.734.98.98 0 0 1 -.292.8l-1.1 1.1a1.008 1.008 0 0 1 -1.411.008l-11.779-12.117 3.859-.556zm13.305-9.407a2.973 2.973 0 0 1 -.623 1.163l-10.816-18.735a2.993 2.993 0 0 1 3.139 1.437l8 13.856a2.982 2.982 0 0 1 .3 2.277z" fill="#375668" data-original="#000000" style="" class=""/></g></g></svg>
