<?xml version="1.0"?>
<svg xmlns="http://www.w3.org/2000/svg" xmlns:xlink="http://www.w3.org/1999/xlink" xmlns:svgjs="http://svgjs.com/svgjs" version="1.1" width="512" height="512" x="0" y="0" viewBox="0 0 512 512" style="enable-background:new 0 0 512 512" xml:space="preserve" class=""><g><path xmlns="http://www.w3.org/2000/svg" d="m499.58 248.84-80-40a8.081 8.081 0 0 0 -3.58-.84h-16v-172a28.031 28.031 0 0 0 -28-28h-232a28.031 28.031 0 0 0 -28 28v172h-76a28.031 28.031 0 0 0 -28 28v40a28.031 28.031 0 0 0 28 28h76v172a28.031 28.031 0 0 0 28 28h232a28.031 28.031 0 0 0 28-28v-172h16a8.081 8.081 0 0 0 3.58-.84l80-40a8.009 8.009 0 0 0 0-14.32zm-443.58 39.16h-20a12.01 12.01 0 0 1 -12-12v-40a12.01 12.01 0 0 1 12-12h20zm32 0h-16v-64h16zm221.75-264-4 16h-99.5l-4-16zm-181.75 12a12.01 12.01 0 0 1 12-12h45.75l6.49 25.94a8 8 0 0 0 7.76 6.06h112a8 8 0 0 0 7.76-6.06l6.49-25.94h45.75a12.01 12.01 0 0 1 12 12v172h-256zm256 440a12.01 12.01 0 0 1 -12 12h-232a12.01 12.01 0 0 1 -12-12v-172h256zm16-188h-296v-8h296zm0-24h-296v-16h295a8.258 8.258 0 0 0 1-.07zm0-31.93a8.258 8.258 0 0 0 -1-.07h-295v-8h296zm40 42.99-24 12v-62.12l24 12zm16-8v-22.12l22.11 11.06z" fill="#375668" data-original="#000000" style="" class=""/></g></svg>
