<?xml version="1.0"?>
<svg xmlns="http://www.w3.org/2000/svg" xmlns:xlink="http://www.w3.org/1999/xlink" xmlns:svgjs="http://svgjs.com/svgjs" version="1.1" width="512" height="512" x="0" y="0" viewBox="0 0 512 512" style="enable-background:new 0 0 512 512" xml:space="preserve" class=""><g><g xmlns="http://www.w3.org/2000/svg"><g id="Page-1_4_"><g id="_x30_05---Programming-Website"><path id="Shape_32_" d="m484.571 0h-457.142c-11.582.048-21.886 7.366-25.747 18.286h217.746c15.148 0 27.429 12.28 27.429 27.429v18.285c0 5.049 4.093 9.143 9.143 9.143h256v-45.714c0-15.149-12.28-27.429-27.429-27.429zm-91.428 45.714c-5.049 0-9.143-4.093-9.143-9.143s4.093-9.143 9.143-9.143c5.049 0 9.143 4.093 9.143 9.143s-4.094 9.143-9.143 9.143zm36.571 0c-5.049 0-9.143-4.093-9.143-9.143s4.093-9.143 9.143-9.143c5.049 0 9.143 4.093 9.143 9.143s-4.093 9.143-9.143 9.143zm36.572 0c-5.049 0-9.143-4.093-9.143-9.143s4.093-9.143 9.143-9.143 9.143 4.093 9.143 9.143-4.094 9.143-9.143 9.143z" fill="#375668" data-original="#000000" style=""/><path id="Shape_31_" d="m0 484.571c0 15.149 12.28 27.429 27.429 27.429h457.143c15.148 0 27.428-12.28 27.428-27.429v-356.571h-512zm265.143-45.714c0-5.049 4.093-9.143 9.143-9.143h36.571c5.049 0 9.143 4.093 9.143 9.143 0 5.049-4.093 9.143-9.143 9.143h-36.571c-5.05 0-9.143-4.093-9.143-9.143zm18.286-82.286h54.857c5.049 0 9.143 4.093 9.143 9.143 0 5.049-4.093 9.143-9.143 9.143h-54.857c-5.049 0-9.143-4.093-9.143-9.143 0-5.049 4.093-9.143 9.143-9.143zm-54.858-18.285c-5.049 0-9.143-4.093-9.143-9.143 0-5.049 4.093-9.143 9.143-9.143h82.286c5.049 0 9.143 4.093 9.143 9.143 0 5.049-4.093 9.143-9.143 9.143zm137.143 146.285h-82.286c-5.049 0-9.143-4.093-9.143-9.143 0-5.049 4.093-9.143 9.143-9.143h82.286c5.049 0 9.143 4.093 9.143 9.143s-4.093 9.143-9.143 9.143zm45.715-73.142h-100.572c-5.049 0-9.143-4.093-9.143-9.143 0-5.049 4.093-9.143 9.143-9.143h100.571c5.049 0 9.143 4.093 9.143 9.143 0 5.049-4.093 9.143-9.142 9.143zm9.142-82.286c0 5.049-4.093 9.143-9.143 9.143h-64c-5.049 0-9.143-4.093-9.143-9.143 0-5.049 4.093-9.143 9.143-9.143h64c5.05 0 9.143 4.093 9.143 9.143zm-116.178-158.108c-3.465-3.587-3.415-9.29.111-12.817 3.527-3.527 9.229-3.576 12.817-.111l36.571 36.571c3.569 3.57 3.569 9.358 0 12.928l-36.571 36.571c-3.587 3.465-9.29 3.415-12.817-.111-3.527-3.527-3.576-9.229-.111-12.817l30.107-30.107zm-74.862 62.592 36.571-73.143c2.257-4.519 7.75-6.353 12.27-4.096s6.353 7.75 4.096 12.27l-36.571 73.143c-1.46 2.923-4.369 4.846-7.631 5.043s-6.381-1.361-8.183-4.087c-1.801-2.726-2.012-6.206-.552-9.13zm-71.424-38.948 36.571-36.571c3.587-3.465 9.29-3.415 12.817.111 3.527 3.527 3.576 9.229.111 12.817l-30.107 30.107 30.107 30.107c2.377 2.296 3.33 5.695 2.493 8.891-.837 3.197-3.333 5.693-6.53 6.53s-6.596-.116-8.891-2.493l-36.571-36.571c-3.569-3.57-3.569-9.358 0-12.928zm-48.393 88.75h164.571c5.049 0 9.143 4.093 9.143 9.143s-4.093 9.143-9.143 9.143h-164.571c-5.049 0-9.143-4.093-9.143-9.143s4.094-9.143 9.143-9.143zm0 36.571h82.286c5.049 0 9.143 4.093 9.143 9.143 0 5.049-4.093 9.143-9.143 9.143h-82.286c-5.049 0-9.143-4.093-9.143-9.143s4.094-9.143 9.143-9.143zm0 36.571h137.143c5.049 0 9.143 4.093 9.143 9.143 0 5.049-4.093 9.143-9.143 9.143h-137.143c-5.049 0-9.143-4.093-9.143-9.143 0-5.049 4.094-9.143 9.143-9.143zm0 36.572h164.571c5.049 0 9.143 4.093 9.143 9.143 0 5.049-4.093 9.143-9.143 9.143h-164.571c-5.049 0-9.143-4.093-9.143-9.143s4.094-9.143 9.143-9.143zm0 36.571h128c5.049 0 9.143 4.093 9.143 9.143 0 5.049-4.093 9.143-9.143 9.143h-128c-5.049 0-9.143-4.093-9.143-9.143 0-5.049 4.094-9.143 9.143-9.143zm0 36.572h137.143c5.049 0 9.143 4.093 9.143 9.143 0 5.049-4.093 9.143-9.143 9.143h-137.143c-5.049 0-9.143-4.093-9.143-9.143s4.094-9.143 9.143-9.143zm-45.714-182.857h9.143c5.049 0 9.143 4.093 9.143 9.143s-4.093 9.143-9.143 9.143h-9.143c-5.049 0-9.143-4.093-9.143-9.143s4.094-9.143 9.143-9.143zm0 36.571h9.143c5.049 0 9.143 4.093 9.143 9.143 0 5.049-4.093 9.143-9.143 9.143h-9.143c-5.049 0-9.143-4.093-9.143-9.143s4.094-9.143 9.143-9.143zm0 36.571h9.143c5.049 0 9.143 4.093 9.143 9.143 0 5.049-4.093 9.143-9.143 9.143h-9.143c-5.049 0-9.143-4.093-9.143-9.143 0-5.049 4.094-9.143 9.143-9.143zm0 36.572h9.143c5.049 0 9.143 4.093 9.143 9.143 0 5.049-4.093 9.143-9.143 9.143h-9.143c-5.049 0-9.143-4.093-9.143-9.143s4.094-9.143 9.143-9.143zm0 36.571h9.143c5.049 0 9.143 4.093 9.143 9.143 0 5.049-4.093 9.143-9.143 9.143h-9.143c-5.049 0-9.143-4.093-9.143-9.143 0-5.049 4.094-9.143 9.143-9.143zm0 36.572h9.143c5.049 0 9.143 4.093 9.143 9.143 0 5.049-4.093 9.143-9.143 9.143h-9.143c-5.049 0-9.143-4.093-9.143-9.143s4.094-9.143 9.143-9.143z" fill="#375668" data-original="#000000" style=""/><path id="Shape_30_" d="m228.571 64v-18.286c0-5.049-4.093-9.143-9.143-9.143h-219.428v73.143h512v-18.285h-256c-15.148 0-27.429-12.281-27.429-27.429zm-91.428 18.286h-100.572c-5.049 0-9.143-4.093-9.143-9.143s4.094-9.143 9.143-9.143h100.571c5.049 0 9.143 4.093 9.143 9.143s-4.093 9.143-9.142 9.143zm70.464-6.464c2.377 2.296 3.33 5.695 2.493 8.892s-3.333 5.693-6.53 6.53-6.596-.116-8.891-2.493l-2.679-2.68-2.679 2.679c-3.587 3.465-9.29 3.415-12.817-.111-3.527-3.527-3.576-9.229-.111-12.817l2.679-2.679-2.679-2.679c-3.465-3.587-3.415-9.29.111-12.817 3.527-3.527 9.229-3.576 12.817-.111l2.679 2.679 2.679-2.679c3.587-3.465 9.29-3.415 12.817.111 3.527 3.527 3.576 9.229.111 12.817l-2.679 2.679z" fill="#375668" data-original="#000000" style=""/></g></g></g></g></svg>
